<?xml version="1.0" standalone="no"?>
<!DOCTYPE svg PUBLIC "-//W3C//DTD SVG 20010904//EN"
 "http://www.w3.org/TR/2001/REC-SVG-20010904/DTD/svg10.dtd">
<svg version="1.0" xmlns="http://www.w3.org/2000/svg"
 width="300.000000pt" height="300.000000pt" viewBox="0 0 300.000000 300.000000"
 preserveAspectRatio="xMidYMid meet">
<metadata>
Created by potrace 1.10, written by Peter Selinger 2001-2011
</metadata>
<g transform="translate(0.000000,300.000000) scale(0.100000,-0.100000)"
fill="#000000" stroke="none">
<path d="M1445 2748 c-76 -7 -185 -37 -205 -58 -21 -22 -93 -59 -122 -63 -54
-7 -111 -44 -140 -90 -46 -75 -53 -129 -53 -420 0 -237 -3 -275 -19 -264 -2 1
-15 -11 -28 -28 -19 -25 -23 -41 -23 -101 0 -40 3 -70 6 -68 9 5 30 -96 22
-108 -3 -7 -1 -8 5 -4 7 4 12 1 12 -9 0 -10 -5 -14 -12 -10 -7 4 -5 0 4 -8 10
-8 15 -17 11 -20 -3 -4 -1 -7 5 -7 7 0 12 -6 12 -13 0 -13 40 -43 53 -39 4 1
7 -8 8 -21 0 -12 13 -60 30 -107 16 -47 31 -91 32 -98 2 -8 15 -28 28 -45 15
-19 24 -44 24 -62 -3 -76 -18 -202 -26 -218 -6 -9 -7 -17 -4 -17 3 0 -1 -16
-9 -35 -9 -20 -15 -36 -15 -38 2 -12 -24 -56 -42 -74 -34 -31 -150 -95 -176
-97 -11 0 -19 -4 -17 -7 4 -7 -68 -44 -75 -40 -2 2 -7 -1 -10 -6 -3 -5 -53
-33 -111 -62 -58 -29 -119 -62 -136 -72 -17 -10 -34 -16 -37 -12 -4 3 -7 2 -7
-3 0 -5 -20 -20 -45 -34 -25 -14 -45 -29 -45 -33 0 -5 -8 -6 -17 -3 -10 4 -14
4 -11 0 4 -4 -12 -20 -35 -37 -46 -34 -107 -95 -107 -108 0 -5 -4 -9 -8 -9
-20 0 -92 -183 -78 -197 2 -3 10 14 16 38 26 97 89 189 176 258 73 57 172 114
450 257 135 70 258 137 273 150 56 47 93 167 107 347 6 72 4 90 -9 105 -27 30
-77 146 -94 221 -13 55 -21 71 -35 71 -28 0 -47 39 -79 166 -21 83 -28 131
-24 157 7 37 35 67 65 67 13 0 14 13 8 92 -16 226 -7 429 22 538 16 61 80 124
140 139 25 6 59 19 75 28 17 9 53 29 80 44 170 95 456 73 638 -48 122 -81 203
-231 214 -395 l6 -77 -32 -18 c-31 -18 -31 -19 -31 -99 0 -45 -3 -109 -6 -143
-6 -51 -4 -61 9 -61 25 0 57 -49 57 -89 0 -41 -42 -217 -62 -258 -7 -15 -23
-32 -36 -38 -12 -5 -22 -19 -22 -30 0 -37 -41 -169 -72 -232 -29 -60 -30 -66
-24 -145 15 -178 52 -296 107 -342 15 -13 138 -80 273 -150 278 -143 377 -200
450 -257 87 -69 149 -160 176 -259 7 -25 15 -40 17 -34 10 29 -61 190 -89 202
-4 2 -8 12 -8 23 0 10 -3 18 -8 17 -4 -2 -27 16 -51 39 -24 23 -56 47 -72 53
-17 7 -26 17 -22 24 3 6 3 8 -2 4 -4 -4 -20 1 -35 12 -16 11 -33 20 -39 20 -5
0 -14 8 -20 18 -5 9 -12 16 -15 14 -9 -4 -130 59 -138 72 -4 6 -8 8 -8 4 0 -9
-233 110 -315 160 -5 4 -16 7 -24 9 -22 3 -84 57 -102 89 -19 35 -45 137 -53
212 -3 28 -9 74 -12 100 -5 41 -1 58 25 108 16 32 35 80 42 106 7 26 15 45 18
43 3 -1 7 18 8 43 1 38 7 51 31 72 20 16 37 45 48 82 9 31 21 55 24 53 4 -3 6
9 4 26 -2 16 0 28 4 25 4 -2 8 35 7 84 0 72 -3 92 -19 109 -11 12 -25 21 -33
21 -14 0 -17 12 -6 24 4 4 6 39 4 78 -2 55 0 69 10 63 9 -6 10 -3 4 11 -16 37
-7 88 21 110 25 20 26 24 22 117 -1 52 -6 93 -9 91 -4 -2 -12 18 -19 44 -7 26
-18 53 -24 61 -6 8 -10 17 -10 20 3 11 -58 93 -90 122 -53 49 -128 96 -186
115 -30 11 -57 21 -60 24 -3 3 -14 6 -25 6 -11 1 -51 6 -90 10 -38 5 -110 6
-160 2z"/>
</g>
</svg>
