<?xml version="1.0" encoding="UTF-8" standalone="no"?>
<!-- Created with Inkscape (http://www.inkscape.org/) -->

<svg
   xmlns:dc="http://purl.org/dc/elements/1.1/"
   xmlns:cc="http://creativecommons.org/ns#"
   xmlns:rdf="http://www.w3.org/1999/02/22-rdf-syntax-ns#"
   xmlns:svg="http://www.w3.org/2000/svg"
   xmlns="http://www.w3.org/2000/svg"
   xmlns:sodipodi="http://sodipodi.sourceforge.net/DTD/sodipodi-0.dtd"
   xmlns:inkscape="http://www.inkscape.org/namespaces/inkscape"
   width="498.55585mm"
   height="489.88684mm"
   viewBox="0 0 1766.5364 1735.8195"
   id="svg2"
   version="1.1"
   inkscape:version="0.91 r13725"
   sodipodi:docname="pharmacy.svg">
  <defs
     id="defs4" />
  <sodipodi:namedview
     id="base"
     pagecolor="#ffffff"
     bordercolor="#666666"
     borderopacity="1.0"
     inkscape:pageopacity="0.0"
     inkscape:pageshadow="2"
     inkscape:zoom="0.35"
     inkscape:cx="929.81708"
     inkscape:cy="943.77494"
     inkscape:document-units="px"
     inkscape:current-layer="layer1"
     showgrid="false"
     fit-margin-top="0"
     fit-margin-left="0"
     fit-margin-right="0"
     fit-margin-bottom="0"
     inkscape:window-width="1920"
     inkscape:window-height="953"
     inkscape:window-x="1280"
     inkscape:window-y="27"
     inkscape:window-maximized="1" />
  <metadata
     id="metadata7">
    <rdf:RDF>
      <cc:Work
         rdf:about="">
        <dc:format>image/svg+xml</dc:format>
        <dc:type
           rdf:resource="http://purl.org/dc/dcmitype/StillImage" />
        <dc:title></dc:title>
      </cc:Work>
    </rdf:RDF>
  </metadata>
  <g
     inkscape:label="Layer 1"
     inkscape:groupmode="layer"
     id="layer1"
     transform="translate(384.84707,484.69042)">
    <path
       style="fill:#01958c"
       d="m 4.5078084,1240.9211 c -36.0308684,-3.2246 -65.7155364,-9.2782 -97.8182034,-19.9481 -63.458965,-21.0914 -113.197195,-52.4057 -164.001815,-103.252 -38.26231,-38.2937 -60.87292,-69.5772 -83.19824,-115.1108 -28.41474,-57.95339 -41.69102,-115.08101 -41.94334,-180.48159 -0.18271,-47.35787 5.44194,-83.35884 20.01821,-128.12813 19.28359,-59.22724 50.5568,-109.72242 96.90997,-156.4754 C -254.1594,526.06084 -139.16336,415.68862 -9.978798,292.25348 119.20563,168.81834 260.88227,33.41735 304.85804,-8.6376069 546.19796,-239.43607 667.12805,-354.93423 677.54638,-364.58564 c 44.89457,-41.58981 106.65949,-76.31743 166.68284,-93.71837 82.39038,-23.88518 166.16458,-22.52958 245.92328,3.97943 63.459,21.09151 113.1972,52.40562 164.0019,103.25202 38.2623,38.29376 60.8729,69.57717 83.1982,115.11086 28.4147,57.95327 41.6909,115.08096 41.9434,180.481554 0.1827,47.3578621 -5.442,83.358834 -20.0184,128.128123 -19.2835,59.227233 -50.5566,109.722413 -96.9098,156.475383 -11.3663,11.46425 -126.3623,121.83648 -255.5467,245.2716 C 877.63649,597.83011 735.95999,733.23111 691.98421,775.28606 450.64429,1006.0845 329.7142,1121.5827 319.29588,1131.2341 c -14.36316,13.3058 -44.41445,36.0976 -61.97613,47.0045 -51.39316,31.9183 -111.66944,53.1372 -172.215222,60.6248 -21.424537,2.6495 -62.318763,3.6935 -80.5967196,2.0577 z M 683.95388,581.37172 C 720.98787,545.94705 842.72227,429.50618 954.47479,322.61422 1066.2272,215.72226 1162.3107,123.29827 1167.9938,117.22759 c 15.0521,-16.0787 27.5807,-34.396197 38.5003,-56.290248 11.152,-22.359804 16.3526,-36.709961 21.2597,-58.6615047 16.7055,-74.7325323 -0.6955,-154.4135973 -47.5516,-217.7422673 -10.1755,-13.75279 -39.0783,-43.61403 -53.54,-55.31541 -80.8501,-65.41811 -189.78436,-77.14883 -284.7922,-30.66819 -20.43409,9.99704 -41.9012,23.85926 -57.57168,37.17662 -6.06198,5.1517 -128.78516,121.96994 -272.71837,259.5960919 C 367.64675,132.94885 246.16806,249.09139 241.62709,253.41724 l -8.25614,7.86521 8.17182,8.66745 c 27.23342,28.88508 371.84131,375.83031 373.2984,375.83031 0.9779,0 32.07859,-28.98381 69.11271,-64.40849 z m 53.5019,-392.82916 c -6.91451,-4.31482 -32.09954,-30.95947 -33.12483,-35.04464 -2.29033,-9.1252 -0.92722,-10.90568 38.94708,-50.87519 L 781.40951,64.400259 743.36676,26.133803 c -48.73581,-49.022356 -47.83285,-46.185531 -22.78463,-71.573264 9.9032,-10.037515 16.96596,-16.050348 20.04723,-17.067272 9.54802,-3.151139 11.87706,-1.416271 51.92579,38.679813 20.45393,20.4780697 37.77726,37.232862 38.49643,37.232862 0.71904,0 18.39273,-16.9779832 39.27458,-37.728855 20.88199,-20.750873 39.41607,-38.169064 41.18685,-38.707079 7.90895,-2.402926 12.46976,0.241363 29.24765,16.957248 17.00922,16.946432 19.03309,20.446134 17.06791,29.513237 -0.74645,3.444484 -9.73636,13.300829 -38.9628,42.718165 l -37.99246,38.240582 37.32138,37.53411 c 20.52681,20.64376 38.01078,38.88832 38.8534,40.54343 2.08491,4.09513 1.92468,9.46605 -0.41566,13.9362 -3.12164,5.96251 -31.44787,33.02597 -35.6783,34.08772 -9.11363,2.28738 -10.96019,0.88242 -49.91707,-37.97866 -20.49085,-20.44059 -38.16482,-37.16469 -39.27553,-37.16469 -1.11072,0 -17.20403,15.25295 -35.76305,33.89545 -18.55901,18.64249 -36.16161,35.6918 -39.11682,37.88735 -6.36315,4.72735 -13.29557,5.22784 -19.42588,1.40241 z"
       id="path4265"
       inkscape:connector-curvature="0" />
  </g>
</svg>
