<svg width="1080" height="1080" fill="none" xmlns="http://www.w3.org/2000/svg"><g clip-path="url(#clip0)"><path opacity=".7" d="M798.505 390.828c-68.165-27.94-117.416-71.893-192.369-223.257-105.827-213.85-350.071-58.107-356.384 100.872-6.314 158.978 107.192 178.595 59.555 441.908-64.945 358.579 386.872 198.981 551.741 108.823 196.632-107.592 243.752-302.585-62.543-428.346z" fill="#DAF2F4"/><path opacity=".1" fill-rule="evenodd" clip-rule="evenodd" d="M585.5 958c148.841 0 269.5-15.894 269.5-35.5S734.341 887 585.5 887 316 902.894 316 922.5c0 .081.002.163.006.244C296.843 920.969 276.123 920 254.5 920 156.469 920 77 939.923 77 964.5s79.469 44.5 177.5 44.5S432 989.077 432 964.5c0-4.752-2.971-9.331-8.474-13.625C468.615 955.348 524.707 958 585.5 958z" fill="#6E7B91"/><rect x="389.972" y="138" width="391.811" height="788.196" rx="60.405" fill="#1A2437"/><rect x="414.176" y="160.692" width="344.042" height="740.934" rx="32.948" fill="#F5F8F9"/><path d="M757.764 870.582c0 17.033-13.809 30.842-30.842 30.842H444.454c-17.034 0-30.843-13.809-30.843-30.842v-19.875h344.153v19.875z" fill="#F8FBFB"/><path d="M413.611 850.707h344.153" stroke="#D2DFE6" stroke-width="1.028"/><path fill-rule="evenodd" clip-rule="evenodd" d="M443.196 866.405a10.262 10.262 0 00-9.482 6.337 10.262 10.262 0 0013.41 13.41 10.257 10.257 0 006.337-9.483 10.264 10.264 0 00-10.265-10.264zm0 19.4a9.081 9.081 0 01-6.415-2.669 8.868 8.868 0 01-1.655-2.233 9.146 9.146 0 011.836-10.911 9.15 9.15 0 0111.004-1.161 9.145 9.145 0 014.073 10.288 9.15 9.15 0 01-8.817 6.686h-.026z" fill="#2CC3D5"/><path fill-rule="evenodd" clip-rule="evenodd" d="M439.846 875.489a1.12 1.12 0 001.109-1.326 1.113 1.113 0 00-.874-.884 1.12 1.12 0 00-1.15.472 1.118 1.118 0 00.915 1.738zm6.865 0c.221 0 .437-.066.621-.188a1.121 1.121 0 00.169-1.718 1.115 1.115 0 00-1.217-.242 1.125 1.125 0 00-.501.411 1.125 1.125 0 00-.103 1.048 1.117 1.117 0 001.031.689zm-4.118 5.709a5.331 5.331 0 01-3.849-2.373l-.924.603a6.416 6.416 0 004.619 2.874c.239.013.479.013.718 0a6.416 6.416 0 005.376-2.913l-.936-.603a5.3 5.3 0 01-5.004 2.412z" fill="#2CC3D5"/><path d="M464.194 880.405v-8.695h5.5v.839h-4.501v3.021h4.255v.839h-4.255v3.157h4.501v.839h-5.5zm10.052-6.154c1.438 0 2.158.793 2.158 2.38v3.774h-.999v-3.712c0-.56-.111-.967-.333-1.221-.214-.255-.559-.383-1.036-.383-.551 0-.991.169-1.32.506-.329.337-.493.793-.493 1.369v3.441h-.999v-6.006h.987v.986c.197-.37.472-.649.826-.838a2.428 2.428 0 011.209-.296zm6.627 5.438c.181 0 .362-.012.543-.037l-.05.79a3.586 3.586 0 01-.616.049c-.724 0-1.271-.189-1.641-.567-.362-.378-.542-.905-.542-1.579v-3.157h-1.172v-.789h1.172v-1.826h.999v1.826h1.702v.789h-1.702v3.083c0 .946.435 1.418 1.307 1.418zm6.584-2.133h-4.391c.033.699.222 1.229.568 1.591.345.353.834.53 1.467.53.699 0 1.34-.238 1.924-.715l.333.727c-.263.247-.6.444-1.011.592a3.88 3.88 0 01-1.258.21c-.937 0-1.677-.275-2.22-.826-.535-.551-.802-1.312-.802-2.282 0-.617.119-1.159.358-1.628.238-.477.571-.847.999-1.11a2.808 2.808 0 011.48-.394c.797 0 1.422.263 1.875.789.452.518.678 1.233.678 2.146v.37zm-2.541-2.528c-.526 0-.949.164-1.27.493-.313.329-.498.793-.555 1.393h3.49c-.016-.608-.168-1.072-.456-1.393-.288-.329-.691-.493-1.209-.493zm7.417.086l-.654.062c-.617.057-1.065.25-1.344.579-.272.329-.407.736-.407 1.221v3.429h-.999v-6.006h.974v1.048c.337-.699.999-1.09 1.986-1.172l.357-.024.087.863zm8.428-.703h.999l-3.552 8.214h-1.024l1.011-2.294-2.54-5.92h1.06l2.011 4.908 2.035-4.908zm4.45 6.08c-.568 0-1.069-.127-1.505-.382a2.602 2.602 0 01-.999-1.086c-.23-.476-.345-1.027-.345-1.652s.115-1.172.345-1.64c.238-.477.571-.843.999-1.098.436-.255.937-.382 1.505-.382.567 0 1.068.127 1.504.382.436.255.769.621.999 1.098.239.468.358 1.015.358 1.64s-.119 1.176-.358 1.652c-.23.469-.563.831-.999 1.086-.436.255-.937.382-1.504.382zm0-.826c.592 0 1.044-.193 1.356-.58.321-.395.481-.966.481-1.714 0-.732-.16-1.295-.481-1.69-.32-.403-.773-.604-1.356-.604-.584 0-1.036.201-1.357.604-.321.395-.481.958-.481 1.69 0 .74.156 1.307.469 1.702.32.394.777.592 1.369.592zm9.406-5.266v6.006h-.974v-1.024a1.95 1.95 0 01-.802.826c-.337.19-.72.284-1.147.284-.715 0-1.254-.197-1.616-.592-.361-.403-.542-.995-.542-1.776v-3.724h.999v3.699c0 .535.106.93.32 1.184.214.247.551.37 1.012.37.526 0 .949-.168 1.27-.505.321-.346.481-.798.481-1.357v-3.391h.999zm5.261.715l-.654.062c-.617.057-1.065.25-1.344.579-.272.329-.407.736-.407 1.221v3.429h-.999v-6.006h.974v1.048c.337-.699.999-1.09 1.986-1.172l.357-.024.087.863zm10.808-.863c1.332 0 1.998.793 1.998 2.38v3.774h-.999v-3.725c0-.551-.099-.954-.296-1.208-.189-.255-.498-.383-.925-.383-.502 0-.896.169-1.184.506-.288.337-.432.797-.432 1.381v3.429h-.999v-3.725c0-.559-.099-.962-.296-1.208-.197-.255-.51-.383-.937-.383-.502 0-.896.169-1.184.506-.288.337-.432.797-.432 1.381v3.429h-.999v-6.006h.987v.949c.181-.353.431-.625.752-.814a2.146 2.146 0 011.11-.283c.929 0 1.542.394 1.838 1.184.172-.37.436-.658.789-.864a2.29 2.29 0 011.209-.32zm8.85 3.305h-4.391c.033.699.222 1.229.567 1.591.346.353.835.53 1.468.53.699 0 1.34-.238 1.924-.715l.333.727c-.263.247-.6.444-1.011.592-.412.14-.831.21-1.258.21-.938 0-1.678-.275-2.22-.826-.535-.551-.802-1.312-.802-2.282 0-.617.119-1.159.358-1.628.238-.477.571-.847.999-1.11a2.805 2.805 0 011.48-.394c.797 0 1.422.263 1.874.789.452.518.679 1.233.679 2.146v.37zm-2.541-2.528c-.526 0-.95.164-1.27.493-.313.329-.498.793-.555 1.393h3.49c-.017-.608-.169-1.072-.456-1.393-.288-.329-.691-.493-1.209-.493zm6.047 5.463c-1.011 0-1.813-.259-2.405-.777l.333-.74c.321.255.646.44.975.555.337.107.715.16 1.134.16.444 0 .782-.074 1.012-.222a.75.75 0 00.357-.666.724.724 0 00-.234-.567c-.156-.14-.415-.251-.777-.333l-1.011-.234c-.51-.115-.901-.313-1.172-.592a1.432 1.432 0 01-.407-1.036c0-.535.21-.966.629-1.295.419-.329.979-.493 1.677-.493.42 0 .819.069 1.197.209.378.132.695.325.949.58l-.333.728c-.55-.469-1.155-.703-1.813-.703-.419 0-.748.082-.986.246a.758.758 0 00-.346.666c0 .239.07.432.21.58.148.14.382.246.703.32l1.024.247c.559.132.974.333 1.245.604.272.264.407.609.407 1.036 0 .527-.213.946-.641 1.258-.419.313-.995.469-1.727.469zm5.926 0c-1.011 0-1.813-.259-2.405-.777l.333-.74c.321.255.646.44.974.555.338.107.716.16 1.135.16.444 0 .781-.074 1.011-.222a.75.75 0 00.358-.666.724.724 0 00-.234-.567c-.156-.14-.415-.251-.777-.333l-1.012-.234c-.509-.115-.9-.313-1.171-.592a1.432 1.432 0 01-.407-1.036c0-.535.209-.966.629-1.295.419-.329.978-.493 1.677-.493.419 0 .818.069 1.196.209.379.132.695.325.95.58l-.333.728c-.551-.469-1.155-.703-1.813-.703-.419 0-.748.082-.987.246a.757.757 0 00-.345.666c0 .239.07.432.21.58.148.14.382.246.703.32l1.023.247c.56.132.975.333 1.246.604.271.264.407.609.407 1.036 0 .527-.214.946-.641 1.258-.42.313-.995.469-1.727.469zm6.333-6.24c.764 0 1.332.197 1.702.592.378.386.567.978.567 1.776v3.786h-.974v-1.024a1.793 1.793 0 01-.716.826c-.32.19-.69.284-1.109.284-.387 0-.745-.078-1.073-.234a1.909 1.909 0 01-.765-.654 1.616 1.616 0 01-.284-.925c0-.452.115-.802.346-1.048.23-.255.608-.436 1.134-.543.526-.115 1.258-.173 2.195-.173h.272v-.406c0-.502-.103-.864-.309-1.086-.205-.23-.538-.345-.998-.345-.691 0-1.378.214-2.06.641l-.333-.727a3.84 3.84 0 011.122-.531 4.26 4.26 0 011.283-.209zm-.395 5.451c.494 0 .896-.165 1.209-.494.32-.337.481-.768.481-1.295v-.357h-.222c-.724 0-1.275.033-1.653.098-.378.058-.649.161-.814.309-.156.14-.234.349-.234.629 0 .32.115.588.345.801.239.206.535.309.888.309zm9.87-5.303v5.599c0 .896-.23 1.57-.691 2.022-.46.461-1.142.691-2.047.691-1.052 0-1.936-.271-2.652-.814l.333-.74c.403.263.782.452 1.135.567.354.116.748.173 1.184.173.576 0 1.011-.156 1.307-.469.296-.304.444-.752.444-1.344v-1.061a1.862 1.862 0 01-.801.888c-.354.206-.773.309-1.258.309-.526 0-.995-.124-1.406-.37a2.554 2.554 0 01-.95-1.049c-.222-.452-.333-.974-.333-1.566 0-.592.111-1.114.333-1.566.23-.452.547-.802.95-1.048.411-.247.88-.37 1.406-.37.477 0 .892.102 1.245.308.354.205.621.497.802.876v-1.036h.999zm-2.849 4.994c.576 0 1.028-.189 1.357-.567.329-.386.493-.917.493-1.591 0-.666-.164-1.188-.493-1.566-.321-.387-.773-.58-1.357-.58s-1.044.193-1.381.58c-.329.378-.494.9-.494 1.566 0 .674.165 1.205.494 1.591.337.378.797.567 1.381.567zm9.73-1.837h-4.39c.033.699.222 1.229.567 1.591.345.353.834.53 1.468.53.698 0 1.34-.238 1.924-.715l.333.727a2.893 2.893 0 01-1.012.592c-.411.14-.83.21-1.258.21-.937 0-1.677-.275-2.22-.826-.534-.551-.801-1.312-.801-2.282 0-.617.119-1.159.357-1.628a2.68 2.68 0 01.999-1.11 2.808 2.808 0 011.48-.394c.798 0 1.423.263 1.875.789.452.518.678 1.233.678 2.146v.37zm-2.54-2.528c-.527 0-.95.164-1.271.493-.312.329-.497.793-.555 1.393h3.491c-.017-.608-.169-1.072-.457-1.393-.288-.329-.69-.493-1.208-.493zm10.213-.777c1.439 0 2.159.793 2.159 2.38v3.774h-.999v-3.712c0-.56-.111-.967-.333-1.221-.214-.255-.559-.383-1.036-.383-.551 0-.991.169-1.32.506-.329.337-.493.793-.493 1.369v3.441h-.999v-8.695h.999v3.651c.197-.362.468-.638.814-.827a2.52 2.52 0 011.208-.283zm9.02 3.305h-4.39c.033.699.222 1.229.567 1.591.345.353.835.53 1.468.53.699 0 1.34-.238 1.924-.715l.333.727a2.884 2.884 0 01-1.012.592c-.411.14-.83.21-1.258.21-.937 0-1.677-.275-2.22-.826-.534-.551-.801-1.312-.801-2.282 0-.617.119-1.159.357-1.628a2.68 2.68 0 01.999-1.11 2.81 2.81 0 011.48-.394c.798 0 1.423.263 1.875.789.452.518.678 1.233.678 2.146v.37zm-2.54-2.528c-.526 0-.95.164-1.271.493-.312.329-.497.793-.555 1.393h3.491c-.017-.608-.169-1.072-.457-1.393-.287-.329-.69-.493-1.208-.493zm7.416.086l-.653.062c-.617.057-1.065.25-1.345.579-.271.329-.407.736-.407 1.221v3.429h-.999v-6.006h.975v1.048c.337-.699.999-1.09 1.985-1.172l.358-.024.086.863zm5.856 2.442h-4.391c.033.699.222 1.229.567 1.591.346.353.835.53 1.468.53.699 0 1.34-.238 1.924-.715l.333.727c-.263.247-.6.444-1.011.592a3.88 3.88 0 01-1.258.21c-.938 0-1.678-.275-2.22-.826-.535-.551-.802-1.312-.802-2.282 0-.617.119-1.159.358-1.628.238-.477.571-.847.999-1.11a2.805 2.805 0 011.48-.394c.797 0 1.422.263 1.874.789.453.518.679 1.233.679 2.146v.37zm-2.541-2.528c-.526 0-.95.164-1.27.493-.313.329-.498.793-.555 1.393h3.49c-.016-.608-.169-1.072-.456-1.393-.288-.329-.691-.493-1.209-.493z" fill="#738192"/><g opacity=".7"><mask id="mask0" maskUnits="userSpaceOnUse" x="414" y="160" width="345" height="742"><rect x="414.176" y="160.692" width="344.042" height="740.934" rx="32.948" fill="#F5F8F9"/></mask><g mask="url(#mask0)"><path d="M758.053 376.121a515.097 515.097 0 00-101.769-9.959c-61.338 0-112.559 10.799-144.593 30.465-64.781 39.963-72.086 123.88-70.659 170.356 1.47 48.072 12.596 115.013 56.721 160.816 35.392 36.769 115.33 56.603 172.722 56.687a32.536 32.536 0 0112.5 2.394 32.551 32.551 0 0117.752 17.564 32.57 32.57 0 012.537 12.483v21.977a3.784 3.784 0 004.319 3.745 3.784 3.784 0 001.937-.887c18.515-16.137 38.163-33.618 57.56-51.561 4.744-4.202 9.614-8.866 14.484-13.321 23.26-21.011 47.316-43.156 63.984-66.856 19.481-27.65 32.118-62.108 37.786-102.407a350.063 350.063 0 00-4.199-113.92c-12.385-62.15-55.377-103.877-121.082-117.576z" fill="#E7EEF1"/></g></g><path d="M414.202 191.3c0-17.034 13.808-30.842 30.842-30.842h282.359c17.033 0 30.842 13.808 30.842 30.842v11.422H414.202V191.3z" fill="#2498A8"/><path d="M758.354 202.323H414.202v48.302h344.152v-48.302z" fill="#2CC3D5"/><path d="M737.806 226.275l5.23-5.243a.838.838 0 00-1.184-1.174l-5.233 5.229-5.233-5.229a.842.842 0 00-.606-.314.832.832 0 00-.64.242.84.84 0 00.062 1.246l5.23 5.233-5.23 5.243a.838.838 0 001.184 1.184l5.233-5.233 5.233 5.233a.825.825 0 00.59.245.845.845 0 00.773-.517.84.84 0 00-.179-.912l-5.23-5.233zm-303.641 6.28a.592.592 0 01-.441-.209l-4.041-4.814a1.173 1.173 0 010-1.512l4.041-4.813a.583.583 0 01.814-.059.589.589 0 01.085.812l-4.041 4.816 4.034 4.816a.59.59 0 01.084.626.599.599 0 01-.218.247.601.601 0 01-.317.09z" fill="#000"/><path d="M489.845 160.458h191.586v3.007c0 14.337-11.622 25.959-25.959 25.959H515.805c-14.337 0-25.96-11.622-25.96-25.959v-3.007z" fill="#1A2437"/><path opacity=".7" fill-rule="evenodd" clip-rule="evenodd" d="M707.453 178.976a8.62 8.62 0 00-6.013 2.444l-1.829-1.806a11.177 11.177 0 0115.661 0l-1.806 1.806a8.62 8.62 0 00-6.013-2.444zm-11.886-2.563h-2.698v9.877h2.698v-9.877zm-6.562 1.966h2.698v7.911h-2.698v-7.911zm-1.166 1.715h-2.698v6.196h2.698v-6.196zm-3.888 1.783h-2.698v4.413h2.698v-4.413zm19.914 1.99a5.145 5.145 0 017.179 0l1.806-1.829a7.725 7.725 0 00-10.791 0l1.806 1.829zm3.59 1.966a1.762 1.762 0 00-1.167.457l-1.829-1.829a4.4 4.4 0 012.996-1.189 4.348 4.348 0 012.972 1.189l-1.829 1.829a1.722 1.722 0 00-1.143-.457zm28.305-8.232h-16.187a.503.503 0 00-.503.503v6.471c0 .278.225.503.503.503h16.187a.503.503 0 00.503-.503v-6.471a.503.503 0 00-.503-.503zm1.395 2.128h.366c.278 0 .503.225.503.503v2.218a.503.503 0 01-.503.503h-.366a.503.503 0 01-.503-.503v-2.218c0-.278.225-.503.503-.503zm-303.452 2.305a1.672 1.672 0 011.144-1.554 1.466 1.466 0 01-.938-1.304 1.626 1.626 0 011.806-1.531 1.497 1.497 0 011.162.332 1.488 1.488 0 01.53 1.085 1.46 1.46 0 01-.96 1.349 1.552 1.552 0 011.166 1.486 1.784 1.784 0 01-1.966 1.692c-1.212.023-1.944-.709-1.944-1.555zm3.11 0c0-.708-.48-1.051-1.258-1.28a1.258 1.258 0 00-1.051 1.212 1.077 1.077 0 00.721 1.042c.143.049.294.068.445.055a1.04 1.04 0 00.795-.266 1.052 1.052 0 00.348-.763zm-2.149-2.903c0 .571.434.891 1.097 1.074a1.17 1.17 0 00.892-1.051.912.912 0 00-.983-.961.929.929 0 00-.707.234.903.903 0 00-.299.681v.023zm5.71.404a.527.527 0 10.746.744.527.527 0 00-.746-.744zm0 3.155a.529.529 0 000 .744.53.53 0 00.744 0 .53.53 0 000-.744.526.526 0 00-.744 0zm3.595-.085c.393.238.843.364 1.303.366 1.006 0 1.303-.64 1.303-1.12 0-.481-.732-1.167-1.509-1.167h-.434v-.594h.434c.572 0 1.303-.274 1.303-.96 0-.686-.297-.892-1.029-.892a2.057 2.057 0 00-1.143.389l-.206-.572a2.702 2.702 0 011.509-.434c1.144 0 1.67.663 1.67 1.372a1.491 1.491 0 01-1.075 1.371 1.513 1.513 0 011.303 1.487c0 .914-.731 1.737-2.126 1.737a2.931 2.931 0 01-1.509-.388l.206-.595zm8.048 1.006c1.28 0 2.012-1.098 2.012-3.064 0-1.852-.732-2.927-1.921-2.927s-2.012 1.098-2.012 3.018c0 1.921.64 2.973 1.921 2.973zm-1.143-3.022c.008 1.481.464 2.244 1.188 2.244.732 0 1.189-.937 1.189-2.4 0-1.464-.365-2.287-1.189-2.287-.814 0-1.181.896-1.188 2.443z" fill="#F5F8F9"/><path d="M602.328 171.094h-57.923a2.555 2.555 0 000 5.111h57.923a2.555 2.555 0 000-5.111zm27.653 3.611a3.636 3.636 0 11-3.611-3.611 3.61 3.61 0 013.611 3.611z" opacity=".2" fill="#F8FBFB"/><g filter="url(#filter0_d)"><path d="M708.122 365.84c0-9.747-7.902-17.648-17.648-17.648H360.648c-9.747 0-17.648 7.901-17.648 17.648v65.954a3.53 3.53 0 003.53 3.529h343.944c9.746 0 17.648-7.901 17.648-17.648V365.84z" fill="#fff"/></g><circle r="47.196" transform="matrix(-1 0 0 1 406.88 366.519)" fill="#FB5A8B"/><path d="M498.618 380.964H673.4m-174.782 21.782h117.978" stroke="#D2DFE6" stroke-width="11.038" stroke-linecap="round"/><g filter="url(#filter1_d)"><path d="M664.206 569.903c0-7.66 6.21-13.87 13.87-13.87h49.916c7.661 0 13.871 6.21 13.871 13.87v19.491a4.458 4.458 0 01-4.459 4.458h-59.328c-7.66 0-13.87-6.21-13.87-13.87v-10.079z" fill="#fff"/></g><path d="M714.228 578.121c1.616-6.182-2.085-12.503-8.267-14.119-6.182-1.616-12.503 2.085-14.119 8.267-1.616 6.182 2.085 12.503 8.267 14.119 6.182 1.616 12.503-2.085 14.119-8.267z" fill="#F9B42F"/><path d="M699.286 573.078c0 .783-.534 1.419-1.189 1.419s-1.187-.636-1.187-1.419c0-.784.535-1.42 1.187-1.42s1.189.636 1.189 1.42zm9.484 1.43a.373.373 0 01-.267-.099c-.775-.714-1.917-.155-1.93-.147a.376.376 0 01-.484-.534 3.03 3.03 0 012.716-1.358.366.366 0 01.259.129.387.387 0 01.091.274.35.35 0 01-.039.142.367.367 0 01-.218.19.363.363 0 01-.146.018 2.24 2.24 0 00-1.029.182c.481.032.937.228 1.291.556a.38.38 0 01.099.409.363.363 0 01-.343.238zm-4.937 8.218a5.677 5.677 0 01-3.475-1.19.566.566 0 01.692-.895 4.55 4.55 0 004.835.45 4.543 4.543 0 002.481-4.174.566.566 0 111.134-.035 5.682 5.682 0 01-5.496 5.841l-.171.003z" fill="#2C2A46"/><path d="M603.19 640.058c0-7.695-6.238-13.933-13.933-13.933H444.711c-7.695 0-13.933 6.238-13.933 13.933v19.473a4.645 4.645 0 004.645 4.644h153.834c7.695 0 13.933-6.238 13.933-13.933v-10.184zm0-336.802c0-7.695-6.238-13.933-13.933-13.933H444.711c-7.695 0-13.933 6.238-13.933 13.933v19.472a4.645 4.645 0 004.645 4.645h153.834c7.695 0 13.933-6.238 13.933-13.933v-10.184zm0 475.834c0-7.695-6.238-13.933-13.933-13.933H444.711c-7.695 0-13.933 6.238-13.933 13.933v19.472a4.645 4.645 0 004.645 4.645h153.834c7.695 0 13.933-6.238 13.933-13.933V779.09z" fill="#D2DFE6"/><path d="M526.543 698.279c0-7.695 6.238-13.933 13.933-13.933h187.351c7.695 0 13.933 6.238 13.933 13.933v42.064a4.644 4.644 0 01-4.644 4.644h-196.64c-7.695 0-13.933-6.238-13.933-13.933v-32.775z" fill="#DEE8EC"/><path d="M573.037 897.279a.613.613 0 00.432-.178.613.613 0 000-.864.613.613 0 00-.864 0 .613.613 0 000 .864c.115.114.27.178.432.178z" fill="#DF638D"/><path d="M493.768 220.043h2.448v11.28h-2.448v-4.736h-5.2v4.736h-2.448v-11.28h2.448v4.56h5.2v-4.56zm11.576 7.808h-5.12c.074.63.277 1.088.608 1.376.341.278.821.416 1.44.416a3.87 3.87 0 001.2-.192 4 4 0 001.104-.576l.64 1.616c-.384.299-.854.534-1.408.704a5.47 5.47 0 01-1.648.256c-1.323 0-2.368-.362-3.136-1.088-.758-.736-1.136-1.733-1.136-2.992 0-.8.165-1.509.496-2.128a3.583 3.583 0 011.376-1.44c.586-.352 1.253-.528 2-.528 1.098 0 1.968.358 2.608 1.072.65.715.976 1.686.976 2.912v.592zm-3.52-2.912c-.459 0-.827.15-1.104.448-.267.288-.432.71-.496 1.264h3.088c-.032-.565-.176-.992-.432-1.28-.246-.288-.598-.432-1.056-.432zm8.467-1.664c1.173 0 2.037.278 2.592.832.565.555.848 1.414.848 2.576v4.64h-2.288v-1.168c-.16.406-.427.726-.8.96-.373.224-.811.336-1.312.336a3.267 3.267 0 01-1.456-.32 2.603 2.603 0 01-1.024-.896 2.33 2.33 0 01-.368-1.28c0-.576.144-1.029.432-1.36.299-.33.773-.57 1.424-.72.651-.149 1.541-.224 2.672-.224h.416v-.288c0-.469-.101-.8-.304-.992-.203-.192-.555-.288-1.056-.288-.384 0-.811.07-1.28.208a6.275 6.275 0 00-1.344.576l-.64-1.616c.448-.277.997-.506 1.648-.688.661-.192 1.275-.288 1.84-.288zm-.432 6.512c.469 0 .848-.154 1.136-.464.288-.32.432-.73.432-1.232v-.272h-.272c-.864 0-1.472.07-1.824.208-.341.139-.512.39-.512.752 0 .288.096.528.288.72.203.192.453.288.752.288zm5.678 1.536v-11.28h2.416v11.28h-2.416zm8.618-1.648c.245 0 .501-.016.768-.048l-.128 1.76a6.732 6.732 0 01-.928.064c-1.195 0-2.069-.261-2.624-.784-.544-.522-.816-1.317-.816-2.384v-3.008h-1.488v-1.808h1.488v-2.304h2.416v2.304h1.968v1.808h-1.968v2.992c0 .939.437 1.408 1.312 1.408zm6.764-6.4c.938 0 1.637.278 2.096.832.458.544.688 1.371.688 2.48v4.736h-2.416v-4.624c0-.533-.102-.922-.304-1.168-.192-.245-.496-.368-.912-.368-.502 0-.907.16-1.216.48-.299.32-.448.747-.448 1.28v4.4h-2.416v-11.28h2.416v4.464a2.633 2.633 0 011.056-.912c.437-.213.922-.32 1.456-.32z" fill="#fff"/><g filter="url(#filter2_d)"><path d="M601 482.469c0-6.49 5.261-11.751 11.752-11.751H885.12c6.49 0 11.751 5.261 11.751 11.751v56.504a2.35 2.35 0 01-2.35 2.35H612.752c-6.491 0-11.752-5.261-11.752-11.751v-47.103z" fill="#fff"/></g><path d="M770.768 497.275H629.136m141.632 17.651h-95.602" stroke="#D2DFE6" stroke-width="7.35" stroke-linecap="round"/><circle cx="845.178" cy="485.568" r="38.245" fill="#DFEA95"/><mask id="mask1" maskUnits="userSpaceOnUse" x="806" y="447" width="78" height="77"><path d="M845.178 523.813c21.122 0 38.245-17.123 38.245-38.245 0-21.122-17.123-38.245-38.245-38.245-21.122 0-38.245 17.123-38.245 38.245 0 21.122 17.123 38.245 38.245 38.245z" fill="#FF5A60"/></mask><g mask="url(#mask1)"><path d="M845.604 508.203c-13.357 0-24.184 1.159-24.184 2.586v66.903c0 1.427 10.827 2.582 24.184 2.582 13.358 0 24.189-1.155 24.189-2.582v-66.903c0-1.427-10.831-2.586-24.189-2.586z" fill="#E7EEF1"/><path d="M862.342 478.952v2.069a2.204 2.204 0 01-2.171 2.212v-6.494a2.212 2.212 0 012.171 2.213z" fill="#CB8591"/><path d="M823.752 516.787s-2.859 6.096-5.958 17.163m49.167-17.207s3.233 5.427 6.346 16.493" stroke="#E7EEF1" stroke-width="3.3" stroke-linecap="round" stroke-linejoin="round"/><path d="M850.418 510.626c0 2.072-2.043 3.769-4.586 3.769-2.544 0-4.587-1.697-4.587-3.769s2.043-3.769 4.587-3.769c2.543 0 4.586 1.697 4.586 3.769z" fill="#CB9685" stroke="#CB9685" stroke-width=".11"/><path d="M850.418 510.626c0 2.072-2.043 3.769-4.586 3.769-2.544 0-4.587-1.697-4.587-3.769s2.043-3.769 4.587-3.769c2.543 0 4.586 1.697 4.586 3.769z" stroke="#fff" stroke-width=".11"/><path d="M860.35 485.968v0a14.108 14.108 0 01-4.134 10.004 14.107 14.107 0 01-10.004 4.134h0-.73 0a13.912 13.912 0 01-3.023-.327h0a14.14 14.14 0 01-11.115-13.802v-15.15a14.136 14.136 0 0114.138-14.138h.753a14.135 14.135 0 0114.115 14.138v15.141zm-29.14-2.736a2.21 2.21 0 01-2.116-2.211v-2.069l2.116 4.28zm0 0l.055.002v-.055l-.055-.002v.055zm0-6.435a1.01 1.01 0 01.055-.002v-.055l-.055.001v.056zm31.305 2.155v2.069h0a2.155 2.155 0 01-2.061 2.156v-6.38a2.157 2.157 0 012.061 2.155z" fill="#CB9685" stroke="#CB9685" stroke-width=".11"/><path opacity=".2" d="M835.253 469.626a8.525 8.525 0 018.521-8.522" stroke="#fff" stroke-width=".66" stroke-linecap="round" stroke-linejoin="round"/><path d="M849.189 508.591v0-8.684c-.979.207-1.978.311-2.979.31m2.979 8.374l-2.979-8.374m2.979 8.374a2.99 2.99 0 01-.878 2.126 2.99 2.99 0 01-2.124.881h-.707a3.001 3.001 0 01-2.98-2.988l6.689-.019zm-2.979-8.374h0v-.055.055s0 0 0 0zm-.73 0v-.055.055h0zm-2.98-.371a4.955 4.955 0 00-.055-.012v.056l.055.012v-.056zm6.744-.007a.891.891 0 01-.055.011l.055.045v-.056z" fill="#CB9685" stroke="#CB9685" stroke-width=".11"/><path d="M842.432 503.113v2.526s.734-1.251 3.408-1.265c2.674-.014 3.413 1.385 3.413 1.385v-3.034l-6.821-.125v.513z" fill="#BF7D68"/><path d="M859.852 485.561a6.208 6.208 0 01-6.263 5.903h-.286a2.632 2.632 0 01-1.959-.924 7.511 7.511 0 00-5.615-2.613 7.498 7.498 0 00-5.668 2.498 2.65 2.65 0 01-1.968.891 6.22 6.22 0 01-6.143-5.838l-.684-11.141v17.399c0 6.601 3.478 11.954 11.949 11.954h5.604c8.905 0 11.587-5.353 11.587-11.954v-17.399l-.554 11.224z" fill="#2C2A46"/></g><path fill-rule="evenodd" clip-rule="evenodd" d="M461.108 241.517a15.1 15.1 0 0013.939-9.324 15.1 15.1 0 00-19.722-19.723A15.095 15.095 0 00446 226.41a15.138 15.138 0 0015.108 15.107z" fill="#FB5A8B"/><path d="M475 221.323a5 5 0 100-10 5 5 0 000 10z" fill="#BED42B" stroke="#2CC3D5" stroke-width="1.186" stroke-miterlimit="10"/><mask id="path-57-outside-1" maskUnits="userSpaceOnUse" x="450" y="215.323" width="22" height="22" fill="#000"><path fill="#fff" d="M450 215.323h22v22h-22z"/><path fill-rule="evenodd" clip-rule="evenodd" d="M455.444 234.638a10 10 0 1011.11-16.63 10 10 0 00-11.11 16.63zm.835-15.394a8.488 8.488 0 014.721-1.421 8.502 8.502 0 018.47 8.5 8.488 8.488 0 01-10.16 8.314 8.485 8.485 0 01-6.66-6.683 8.487 8.487 0 013.629-8.71zm5.461 6.319H465a.749.749 0 110 1.5h-3.26v3.26a.75.75 0 01-1.5 0v-3.26H457a.75.75 0 110-1.5h3.24v-3.24a.749.749 0 011.28-.53c.141.141.22.331.22.53v3.24z"/></mask><path fill-rule="evenodd" clip-rule="evenodd" d="M455.444 234.638a10 10 0 1011.11-16.63 10 10 0 00-11.11 16.63zm.835-15.394a8.488 8.488 0 014.721-1.421 8.502 8.502 0 018.47 8.5 8.488 8.488 0 01-10.16 8.314 8.485 8.485 0 01-6.66-6.683 8.487 8.487 0 013.629-8.71zm5.461 6.319H465a.749.749 0 110 1.5h-3.26v3.26a.75.75 0 01-1.5 0v-3.26H457a.75.75 0 110-1.5h3.24v-3.24a.749.749 0 011.28-.53c.141.141.22.331.22.53v3.24z" fill="#fff"/><path d="M455.444 234.638l-.277.416.277-.416zm12.627-1.244l-.353-.353.353.353zm1.244-12.626l.415-.278-.415.278zm-4.488-3.684l.191-.461-.191.461zm-5.778-.569l-.097-.49.097.49zm-5.12 2.737l.353.354-.353-.354zm-2.737 5.12l-.49-.097.49.097zm.569 5.778l-.462.191.462-.191zM461 217.823l.002-.5h-.001l-.001.5zm5.991 2.5l.354-.353-.354.353zm2.479 6l.5.001v-.001h-.5zm-16.327-3.275l-.462-.192.462.192zm8.597 2.515h-.5v.5h.5v-.5zm0 1.5v-.5h-.5v.5h.5zm-1.5 0h.5v-.5h-.5v.5zm0-1.5v.5h.5v-.5h-.5zm.76 10.26a9.498 9.498 0 01-5.278-1.601l-.555.832a10.501 10.501 0 005.833 1.769v-1zm6.718-2.782a9.503 9.503 0 01-6.718 2.782v1c2.785 0 5.455-1.106 7.425-3.075l-.707-.707zm2.782-6.718a9.503 9.503 0 01-2.782 6.718l.707.707a10.5 10.5 0 003.075-7.425h-1zm-1.601-5.278a9.5 9.5 0 011.601 5.278h1c0-2.076-.616-4.107-1.77-5.833l-.831.555zm-4.264-3.499a9.503 9.503 0 014.264 3.499l.831-.555a10.486 10.486 0 00-4.712-3.867l-.383.923zm-5.488-.54a9.494 9.494 0 015.488.54l.383-.923a10.497 10.497 0 00-6.066-.598l.195.981zm-4.865 2.6a9.496 9.496 0 014.865-2.6l-.195-.981a10.5 10.5 0 00-5.377 2.874l.707.707zm-2.599 4.864a9.495 9.495 0 012.599-4.864l-.707-.707a10.498 10.498 0 00-2.873 5.376l.981.195zm.54 5.489a9.497 9.497 0 01-.54-5.489l-.981-.195a10.504 10.504 0 00.597 6.066l.924-.382zm3.499 4.263a9.5 9.5 0 01-3.499-4.263l-.924.382a10.503 10.503 0 003.868 4.713l.555-.832zm5.279-16.899a8.99 8.99 0 00-4.999 1.504l.554.833a7.996 7.996 0 014.443-1.337l.002-1zm6.344 2.647a9.006 9.006 0 00-6.343-2.647l-.004 1a8.004 8.004 0 015.639 2.353l.708-.706zm2.625 6.353a9.002 9.002 0 00-2.625-6.353l-.708.706a8.002 8.002 0 012.333 5.647h1zm-1.522 4.995a8.993 8.993 0 001.522-4.994l-1-.001a7.998 7.998 0 01-1.352 4.438l.83.557zm-4.04 3.306a8.991 8.991 0 004.04-3.306l-.83-.557a7.996 7.996 0 01-3.591 2.939l.381.924zm-5.196.504a8.997 8.997 0 005.196-.504l-.381-.924a7.995 7.995 0 01-4.618.447l-.197.981zm-4.6-2.469a8.988 8.988 0 004.6 2.469l.197-.981a7.99 7.99 0 01-4.089-2.194l-.708.706zm-2.453-4.609a8.998 8.998 0 002.453 4.609l.708-.706a7.992 7.992 0 01-2.179-4.096l-.982.193zm.522-5.194a8.994 8.994 0 00-.522 5.194l.982-.193a7.985 7.985 0 01.464-4.617l-.924-.384zm3.321-4.029a8.992 8.992 0 00-3.321 4.029l.924.384a7.977 7.977 0 012.951-3.58l-.554-.833zm8.998 6.236h-3.26v1H465v-1zm.884.366a1.252 1.252 0 00-.884-.366v1c.066 0 .13.027.177.073l.707-.707zm.366.884c0-.331-.132-.649-.366-.884l-.707.707a.25.25 0 01.073.177h1zm-.366.884a1.25 1.25 0 00.366-.884h-1c0 .067-.026.13-.073.177l.707.707zm-.884.366c.332 0 .649-.131.884-.366l-.707-.707a.25.25 0 01-.177.073v1zm-3.26 0H465v-1h-3.26v1zm.5 2.76v-3.26h-1v3.26h1zm-.366.884a1.25 1.25 0 00.366-.884h-1c0 .067-.026.13-.073.177l.707.707zm-.884.366c.332 0 .649-.131.884-.366l-.707-.707a.25.25 0 01-.177.073v1zm-.884-.366c.235.235.552.366.884.366v-1a.25.25 0 01-.177-.073l-.707.707zm-.366-.884c0 .332.132.65.366.884l.707-.707a.249.249 0 01-.073-.177h-1zm0-3.26v3.26h1v-3.26h-1zm-2.74.5h3.24v-1H457v1zm-.884-.366c.235.235.552.366.884.366v-1a.25.25 0 01-.177-.073l-.707.707zm-.366-.884c0 .332.132.65.366.884l.707-.707a.249.249 0 01-.073-.177h-1zm.366-.884a1.254 1.254 0 00-.366.884h1a.25.25 0 01.073-.177l-.707-.707zm.884-.366c-.332 0-.649.132-.884.366l.707.707a.255.255 0 01.177-.073v-1zm3.24 0H457v1h3.24v-1zm-.5-2.74v3.24h1v-3.24h-1zm.366-.884a1.254 1.254 0 00-.366.884h1a.25.25 0 01.073-.177l-.707-.707zm.884-.366c-.332 0-.649.132-.884.366l.707.707a.255.255 0 01.177-.073v-1zm.884.366a1.252 1.252 0 00-.884-.366v1c.066 0 .13.027.177.073l.707-.707zm.366.884c0-.331-.132-.649-.366-.884l-.707.707a.25.25 0 01.073.177h1zm0 3.24v-3.24h-1v3.24h1z" fill="#fff" mask="url(#path-57-outside-1)"/><mask id="path-59-outside-2" maskUnits="userSpaceOnUse" x="376.667" y="335.99" width="61" height="61" fill="#000"><path fill="#fff" d="M376.667 335.99h61v61h-61z"/><path fill-rule="evenodd" clip-rule="evenodd" d="M391.259 389.881a28.337 28.337 0 0035.776-3.523 28.336 28.336 0 00-9.192-46.211 28.334 28.334 0 00-26.584 49.734zm2.364-43.617A24.059 24.059 0 01407 342.24a24.083 24.083 0 0123.998 24.083 24.048 24.048 0 01-14.882 22.209 24.052 24.052 0 01-32.774-17.59 24.052 24.052 0 0110.281-24.678zm15.474 17.906h9.236a2.128 2.128 0 012.125 2.125 2.128 2.128 0 01-2.125 2.125h-9.236v9.237c0 .563-.224 1.104-.623 1.502a2.122 2.122 0 01-3.005 0 2.126 2.126 0 01-.622-1.502v-9.237h-9.18a2.128 2.128 0 01-2.125-2.125 2.128 2.128 0 012.125-2.125h9.18v-9.18a2.128 2.128 0 012.125-2.125 2.126 2.126 0 012.125 2.125v9.18z"/></mask><path fill-rule="evenodd" clip-rule="evenodd" d="M391.259 389.881a28.337 28.337 0 0035.776-3.523 28.336 28.336 0 00-9.192-46.211 28.334 28.334 0 00-26.584 49.734zm2.364-43.617A24.059 24.059 0 01407 342.24a24.083 24.083 0 0123.998 24.083 24.048 24.048 0 01-14.882 22.209 24.052 24.052 0 01-32.774-17.59 24.052 24.052 0 0110.281-24.678zm15.474 17.906h9.236a2.128 2.128 0 012.125 2.125 2.128 2.128 0 01-2.125 2.125h-9.236v9.237c0 .563-.224 1.104-.623 1.502a2.122 2.122 0 01-3.005 0 2.126 2.126 0 01-.622-1.502v-9.237h-9.18a2.128 2.128 0 01-2.125-2.125 2.128 2.128 0 012.125-2.125h9.18v-9.18a2.128 2.128 0 012.125-2.125 2.126 2.126 0 012.125 2.125v9.18z" fill="#fff"/><path d="M391.259 389.881l-.787 1.178.787-1.178zm39.299-39.299l1.178-.787-1.178.787zm-12.715-10.435l.542-1.309-.542 1.309zm-30.878 6.141l-1.001-1.001 1.001 1.001zm-6.142 30.878l-1.308.542 1.308-.542zM407 342.24l.005-1.417h-.002L407 342.24zm-13.377 4.024l.785 1.18-.785-1.18zm30.352 3.06l1.003-1-1.003 1zm7.023 16.999l1.417.002v-.002h-1.417zm-4.071 13.362l1.176.789-1.176-.789zm-10.811 8.847l-.54-1.309.54 1.309zm-13.904 1.348l-.278 1.389.278-1.389zm-12.308-6.606l1.003-1-1.003 1zm-6.562-12.332l1.39-.273-1.39.273zm1.396-13.899l1.308.545-1.308-.545zm24.359 7.127h-1.417v1.417h1.417v-1.417zm10.739.622l-1.002 1.002 1.002-1.002zm0 3.006l-1.002-1.002 1.002 1.002zm-10.739.622v-1.417h-1.417v1.417h1.417zm-.623 10.739l-1.001-1.002 1.001 1.002zm-3.005 0l1.002-1.002-1.002 1.002zm-.622-10.739h1.416v-1.417h-1.416v1.417zm-10.683-.622l1.002-1.002-1.002 1.002zm0-3.006l1.002 1.002-1.002-1.002zm10.683-.622v1.417h1.416v-1.417h-1.416zm.622-10.683l1.002 1.002-1.002-1.002zm3.005 0l-1.001 1.002 1.001-1.002zM407 393.24a26.912 26.912 0 01-14.954-4.537l-1.574 2.356A29.748 29.748 0 00407 396.073v-2.833zm19.033-7.884A26.916 26.916 0 01407 393.24v2.833a29.75 29.75 0 0021.036-8.713l-2.003-2.004zm7.884-19.033a26.916 26.916 0 01-7.884 19.033l2.003 2.004a29.75 29.75 0 008.714-21.037h-2.833zm-4.537-14.954a26.912 26.912 0 014.537 14.954h2.833a29.748 29.748 0 00-5.014-16.528l-2.356 1.574zm-12.079-9.914a26.921 26.921 0 0112.079 9.914l2.356-1.574a29.747 29.747 0 00-13.351-10.957l-1.084 2.617zm-15.552-1.531a26.917 26.917 0 0115.552 1.531l1.084-2.617a29.747 29.747 0 00-17.189-1.693l.553 2.779zm-13.782 7.366a26.91 26.91 0 0113.782-7.366l-.553-2.779a29.744 29.744 0 00-15.232 8.142l2.003 2.003zm-7.366 13.782a26.915 26.915 0 017.366-13.782l-2.003-2.003a29.744 29.744 0 00-8.142 15.232l2.779.553zm1.531 15.552a26.917 26.917 0 01-1.531-15.552l-2.779-.553a29.747 29.747 0 001.693 17.189l2.617-1.084zm9.914 12.079a26.908 26.908 0 01-9.914-12.079l-2.617 1.084a29.74 29.74 0 0010.957 13.351l1.574-2.356zm14.957-47.88a25.464 25.464 0 00-14.164 4.262l1.569 2.359a22.641 22.641 0 0112.589-3.788l.006-2.833zm17.975 7.501a25.5 25.5 0 00-17.973-7.501l-.01 2.833a22.67 22.67 0 0115.976 6.668l2.007-2zm7.437 17.999c0-6.747-2.674-13.22-7.437-17.999l-2.007 2a22.663 22.663 0 016.611 15.999h2.833zm-4.312 14.151a25.464 25.464 0 004.312-14.149l-2.833-.004a22.647 22.647 0 01-3.832 12.576l2.353 1.577zm-11.447 9.368a25.472 25.472 0 0011.447-9.368l-2.353-1.577a22.644 22.644 0 01-10.174 8.326l1.08 2.619zm-14.722 1.427c4.94.991 10.064.494 14.722-1.427l-1.08-2.619a22.643 22.643 0 01-13.085 1.268l-.557 2.778zm-13.034-6.995a25.476 25.476 0 0013.034 6.995l.557-2.778a22.64 22.64 0 01-11.584-6.217l-2.007 2zm-6.948-13.058a25.464 25.464 0 006.948 13.058l2.007-2a22.634 22.634 0 01-6.175-11.605l-2.78.547zm1.479-14.717a25.466 25.466 0 00-1.479 14.717l2.78-.547a22.638 22.638 0 011.314-13.081l-2.615-1.089zm9.408-11.414a25.468 25.468 0 00-9.408 11.414l2.615 1.089a22.638 22.638 0 018.362-10.144l-1.569-2.359zm25.494 17.668h-9.236v2.834h9.236v-2.834zm2.505 1.038a3.54 3.54 0 00-2.505-1.038v2.834c.188 0 .368.074.501.207l2.004-2.003zm1.037 2.504c0-.939-.373-1.84-1.037-2.504l-2.004 2.003a.709.709 0 01.208.501h2.833zm-1.037 2.504a3.542 3.542 0 001.037-2.504h-2.833a.709.709 0 01-.208.501l2.004 2.003zm-2.505 1.038c.94 0 1.84-.374 2.505-1.038l-2.004-2.003a.708.708 0 01-.501.207v2.834zm-9.236 0h9.236v-2.834h-9.236v2.834zm1.416 7.82v-9.237h-2.833v9.237h2.833zm-1.037 2.504a3.542 3.542 0 001.037-2.504h-2.833a.71.71 0 01-.207.5l2.003 2.004zm-2.504 1.037c.939 0 1.84-.373 2.504-1.037l-2.003-2.004a.709.709 0 01-.501.208v2.833zm-2.505-1.037a3.544 3.544 0 002.505 1.037v-2.833a.709.709 0 01-.501-.208l-2.004 2.004zm-1.037-2.504c0 .939.373 1.84 1.037 2.504l2.004-2.004a.706.706 0 01-.208-.5h-2.833zm0-9.237v9.237h2.833v-9.237h-2.833zm-7.763 1.417h9.18v-2.834h-9.18v2.834zm-2.505-1.038a3.545 3.545 0 002.505 1.038v-2.834a.708.708 0 01-.501-.207l-2.004 2.003zm-1.037-2.504c0 .939.373 1.84 1.037 2.504l2.004-2.003a.709.709 0 01-.208-.501h-2.833zm1.037-2.504a3.542 3.542 0 00-1.037 2.504h2.833c0-.188.075-.368.208-.501l-2.004-2.003zm2.505-1.038c-.94 0-1.84.373-2.505 1.038l2.004 2.003a.708.708 0 01.501-.207v-2.834zm9.18 0h-9.18v2.834h9.18v-2.834zm-1.417-7.763v9.18h2.833v-9.18h-2.833zm1.037-2.504a3.542 3.542 0 00-1.037 2.504h2.833c0-.188.075-.368.208-.501l-2.004-2.003zm2.505-1.038c-.94 0-1.84.373-2.505 1.038l2.004 2.003a.708.708 0 01.501-.207v-2.834zm2.504 1.038a3.538 3.538 0 00-2.504-1.038v2.834c.188 0 .368.074.501.207l2.003-2.003zm1.037 2.504c0-.939-.373-1.84-1.037-2.504l-2.003 2.003a.712.712 0 01.207.501h2.833zm0 9.18v-9.18h-2.833v9.18h2.833z" fill="#fff" mask="url(#path-59-outside-2)"/><path d="M282.922 330.192C287 348.5 306.891 430.016 333 448.5c13.164 9.331 70-6 70-6" stroke="#CB9685" stroke-width="33.135" stroke-linecap="round" stroke-linejoin="round"/><path d="M283.031 331.897c16.001 12.386 21.826 53.092 29.26 88.422" stroke="#EBEEF5" stroke-width="35.89" stroke-linecap="round" stroke-linejoin="round"/><path d="M285.405 428.613c-.369-3.955 1.5-7.72 4.924-10.803.482 2.655.937 5.32 1.364 7.993v.355a9.93 9.93 0 007.462 7.803 38.293 38.293 0 0012.277.736 47.551 47.551 0 0010.586-2.128 11.838 11.838 0 007.966-12.891v-.081c-.3-1.801-.614-3.629-.928-5.457 3.97 2.415 6.521 5.784 6.821 9.74.832 8.894-9.631 16.888-23.804 18.211-14.173 1.323-25.918-4.611-26.764-13.491l.096.013z" fill="#D2DFE6"/><path opacity=".1" d="M313.101 370.788S324.424 435.498 321 453c-3.424 17.502-7.899 9-7.899 9v-25L298 327l15.101 43.788z" fill="#000"/><path d="M198.169 712.474s35.576-11.663 62.449 0V538.807l-60.594-1.364-1.855 175.031z" fill="#DCDFE5"/><path d="M150.902 960.415c1.842-11.677 3.492-22.317 5.197-32.943.642-4.093 1.365-8.076 2.047-12.127.491-3.097 1.923-4.297 5.265-2.728a27.946 27.946 0 0017.338 2.005c3.697-.751 4.638 1.364 4.379 4.092-.532 5.893-1.364 11.745-1.842 17.638-.764 9.658-.804 19.384-2.223 28.947a24.07 24.07 0 01-6.057 12.359c-5.975 6.534-17.365 2.305-20.762-5.634a61.579 61.579 0 01-3.342-11.609z" fill="#D2DFE6"/><path d="M273.618 897.557l1.064 15.456" stroke="#CB9685" stroke-width="22.835" stroke-linecap="round" stroke-linejoin="round"/><path d="M321.908 942.545a11.986 11.986 0 011.446 8.785c-.873 3.643-3.396 5.334-8.58 6.453-6.493 1.364-12.509-.26-18.525-2.401-7.271-2.592-14.419-6.071-21.935-7.353-8.989-1.528-11.84-7.284-12.877-14.705-.682-4.774-.137-9.726 0-14.582 0-2.06 1.023-3.083 3.383-2.62a28.047 28.047 0 0019.671-2.578 3.073 3.073 0 012.837.519c4.092 8.921 13 11.717 20.598 16.164 3.342 1.951 6.971 3.684 9.699 6.303a27.147 27.147 0 014.283 6.015z" fill="#D2DFE6"/><path d="M274.971 917.381c6.269-.429 11.296-1.576 11.228-2.56-.067-.985-5.203-1.435-11.472-1.005-6.268.429-11.295 1.575-11.228 2.56.068.985 5.204 1.435 11.472 1.005z" fill="#CB9685"/><path d="M285.95 910.584l.287 4.229-22.686 1.555-.423-4.925 22.822-.859z" fill="#CB9685"/><path d="M172.36 901.895l-.3 15.496" stroke="#CB9685" stroke-width="22.835" stroke-linecap="round" stroke-linejoin="round"/><path d="M183.038 920.174c.02-.987-4.886-1.885-10.957-2.006-6.071-.12-11.009.582-11.028 1.568-.02.987 4.886 1.885 10.957 2.006 6.071.121 11.008-.581 11.028-1.568z" fill="#CB9685"/><path d="M183.123 915.959l-.082 4.229-21.99-.437.014-4.938 22.058 1.146z" fill="#CB9685"/><path d="M219.899 492.1h-.614c-40.241 0-63.95 6.261-63.963 12.55l.068 399.823c0 1.787.928 3.165 4.856 3.779 2.183.355 12.727-.437 15.647-.9 5.279-.846 8.771-2.306 8.771-3.97l13.791-175.726 9.167-160.966a111.994 111.994 0 0023.586 1.773c10.735.109 9.794-1.146 14.446-2.21l4.515 162.003 4.283 175.099c0 2.592 8.458 4.692 18.894 4.692h.613c10.436 0 18.907-2.1 18.907-4.692l.123-399.824c0-6.33-32.862-11.418-73.09-11.431z" fill="#0747A6"/><path opacity=".5" d="M290.22 533.882l-1.801 363.934" stroke="#C2CFEF" stroke-width="1.2" stroke-linecap="round" stroke-linejoin="round" stroke-dasharray="3 6"/><path d="M182.822 516.504a21.717 21.717 0 01-24.335 18.729 23.348 23.348 0 01-2.974-.614v-31.374a.45.45 0 010-.137c.15-1.896 3.355-3.669 8.867-5.238 2.619-.737 5.742-1.432 9.33-2.06a21.63 21.63 0 019.112 20.694z" fill="#95A2CE"/><path opacity=".5" d="M159.878 535.233l3.956 176.381-5.402 186.202" stroke="#C2CFEF" stroke-width="1.2" stroke-linecap="round" stroke-linejoin="round" stroke-dasharray="3 6"/><path d="M184.896 516.763a23.795 23.795 0 01-7.87 14.799 23.797 23.797 0 01-15.675 5.936 21.76 21.76 0 01-3.124-.205c-.682-.095-1.759-.327-2.728-.559v-4.311c1.119.287 2.606.655 3.247.737a19.6 19.6 0 0022.003-16.861 27.531 27.531 0 00-.764-8.184c1.364.123 2.837.259 4.338.368a29.44 29.44 0 01.573 8.28z" fill="#ADB9E0"/><path opacity=".5" d="M243.771 506.75v22.563c0 4.597-2.032 9.549-6.493 9.549s-8.062-4.256-8.062-9.549V506.75c2.728 0 5.457.069 8.362.069 2.906 0 3.642-.069 6.193-.069z" stroke="#C2CFEF" stroke-width="1.514" stroke-miterlimit="10"/><path d="M293.003 503.544V531.7a19.65 19.65 0 01-14.583-16.479c-.157-2.751.101-5.51.764-8.185l-2.319.191a21.616 21.616 0 015.456-9.617c6.753 1.733 10.682 3.752 10.682 5.934z" fill="#95A2CE"/><path d="M292.989 531.7v4.283a23.92 23.92 0 01-18.729-20.23 30.229 30.229 0 01.573-8.348l2.018-.191 2.319-.191a27.507 27.507 0 00-.763 8.185 19.638 19.638 0 0014.582 16.478v.014z" fill="#ADB9E0"/><path d="M287.191 315.555c-8.921-2.605-34.348-3.86-64.263-2.878-17.488.586-33.394 1.828-45.344 3.396-13.641 1.364-22.249 3.274-22.249 5.457v190.472c0 4.092 30.83 7.366 68.875 7.366s68.861-3.301 68.861-7.366V321.421c-.014-.191-.014-4.475-5.88-5.866z" fill="#00C6D7"/><path d="M249.869 312.39l-11.472 28.278a4.43 4.43 0 01-3.847 2.23 4.426 4.426 0 01-3.847-2.23l-19.384-27.473a114.296 114.296 0 0117.815-1.16c7.271 0 14.228.123 20.735.355z" fill="#80E3EB"/><path d="M268.939 210.054v51.591c0 18.552-13.027 23.776-30.447 27.568a39.39 39.39 0 01-8.28.874h-2.06a38.671 38.671 0 01-27.352-11.356 38.678 38.678 0 01-11.307-27.372v-41.305a38.74 38.74 0 0138.659-38.741h2.06a38.726 38.726 0 0138.727 38.741z" fill="#CB9685"/><path d="M230.212 290.086h-2.06a38.61 38.61 0 01-8.28-.886v23.845a8.356 8.356 0 002.445 5.903 8.34 8.34 0 002.709 1.809 8.334 8.334 0 003.194.636h1.924a8.351 8.351 0 008.348-8.348v-23.832a39.323 39.323 0 01-8.28.873z" fill="#CB9685"/><path d="M219.899 298.149v11.063s2.005-7.584 9.317-7.625c7.312-.041 9.303 1.528 9.303 1.528v-6.03l-18.647-4.502.027 5.566z" fill="#BF7D68"/><path d="M194.636 231.102l2.564 17.529a6.03 6.03 0 01-6.725-5.156l-.818-5.593a6.016 6.016 0 014.979-6.78z" fill="#E2AAB7"/><path d="M276.21 173.25c-4.665-2.592-13.641-.396-16.969-5.047-3.329-4.652-13.478-8.294-21.117-1.296-7.639 6.998-14.378 2.196-14.378 2.196-17.883-8.676-25.263 3.751-27.282 6.821-2.019 3.069 2.332 7.134-15.156 12.836s-11.267 21.471-8.648 24.554c2.619 3.083 2.333 3.015.682 13.982-1.228 8.185 15.919 36.668 25.195 49.286 7.326 16.629 32.18 22.822 44.443 23.095 11.309.218 18.648-2.347 22.631-4.393a6.83 6.83 0 003.738-6.07l.15-16.697v-2.346c-.369-13.301-2.728-19.657-12.823-19.657-9.153 0-16.615 8.621-16.615 19.22a37.7 37.7 0 00.996 6.971c-9.29.382-19.48 0-24.295-.819a19.32 19.32 0 01-13.068-9.221c-2.729-11.527 5.115-21.471-2.565-29.274-4.379-4.461 6.534-13.191 10.818-15.128 4.283-1.937 5.21-7.312 4.228-9.113-3.765-6.902 2.183-9.221 3.247-9.753 1.555-.778 4.256-8.185 26.027 5.456 15.742 9.945 37.759 2.265 40.924-11.213a22.084 22.084 0 00-10.163-24.39zm-30.788 96.443c0-7.625 5.034-13.846 11.227-13.846 4.556 0 7.298 0 7.489 16.725h.204a62.039 62.039 0 01-8.375 2.523 68.58 68.58 0 01-9.467 1.255 35.792 35.792 0 01-1.078-6.657z" fill="#2C2A46"/><path d="M203.625 262.218s3.301-15.906-5.293-19.221c-8.593-3.315-10.626 8.662-6.52 14.119 4.106 5.456 11.813 5.102 11.813 5.102z" fill="#CB9685"/><path d="M125.874 451.749l10.786-111.908a22.97 22.97 0 01.537-1.069c.396-.753.994-1.832 1.802-3.125a56.864 56.864 0 017.379-9.442c6.638-6.825 16.733-13.501 30.667-13.079 14.189.43 22.77.618 27.804.698 2.517.04 4.149.053 5.152.057h.714l2.255 64.665v.01l2.273 46.413-26.13 86.618-.029.096v227.301c-.305.08-.741.192-1.293.33-1.153.288-2.812.689-4.831 1.142-4.04.906-9.517 2.016-15.271 2.833-5.76.817-11.771 1.337-16.889 1.076-2.559-.131-4.872-.456-6.81-1.026-1.941-.572-3.459-1.376-4.478-2.433-2.663-2.784-4.923-6.908-6.817-12.201-1.892-5.288-3.405-11.699-4.596-19.014-2.382-14.63-3.468-32.811-3.765-52.719-.49-32.812 1.162-70.244 2.656-104.088.319-7.224.63-14.284.912-21.101a580.137 580.137 0 00-2.028-80.034zm182.18-111.987l10.787 111.986v.001l.002.034.009.135.034.532c.029.471.073 1.171.128 2.084.111 1.828.268 4.513.458 7.942.378 6.86.883 16.697 1.386 28.608 1.006 23.822 2.007 55.936 1.985 89.104-.023 33.173-1.068 67.383-4.15 95.406-1.541 14.012-3.589 26.458-6.267 36.446-2.685 10.015-5.977 17.454-9.942 21.552-2.117 2.188-5.316 3.35-9.031 3.815-3.706.464-7.839.224-11.724-.312-3.88-.536-7.483-1.363-10.118-2.057a87.253 87.253 0 01-3.133-.886 61.224 61.224 0 01-.684-.213V506.68l-.014-.068-14.381-69.965-2.275-59.202 2.633-64.373h22.233c13.902.074 21.893 6.749 26.433 13.4 2.277 3.336 3.689 6.672 4.53 9.176.421 1.25.698 2.291.869 3.015.086.362.146.645.183.836l.041.216.008.047z" fill="#F3F6FA" stroke="#F3F6FA" stroke-width="1.364"/><g filter="url(#filter3_d)"><path d="M192.958 368.974l-9.44 10.476a10.67 10.67 0 001.051 13.86l31.374 31.688v-9.917l-1.446-24.554-18.088-26.082-3.451 4.529z" fill="#FAFCFF"/></g><g filter="url(#filter4_d)"><path d="M211.319 313.195l-28.647 19.357a12.4 12.4 0 00-3.11 15.578l30.87 48.413 4.843 7.462-3.956-90.81z" fill="#FAFCFF"/></g><g filter="url(#filter5_d)"><path d="M271.34 368.128l9.44 10.477a10.672 10.672 0 01-1.05 13.859l-31.375 31.689v-9.931l1.446-24.554 18.047-26.15 3.492 4.61z" fill="#FAFCFF"/></g><g filter="url(#filter6_d)"><path d="M252.884 312.336l28.646 19.343a12.4 12.4 0 013.124 15.578l-30.87 48.413-4.843 7.475 3.943-90.809z" fill="#FAFCFF"/></g><path opacity=".05" d="M169.236 348.799s-18.02 56.856-13.641 80.742c2.482 13.75-7.544 3.451-7.544 3.451l-7.434-23.19 28.619-61.003z" fill="#000"/><path d="M280.889 480.355H221.4a9.552 9.552 0 01-9.672-11.8l14.746-83.621a14.637 14.637 0 0113.819-11.745h59.557a9.553 9.553 0 019.696 7.38 9.55 9.55 0 01-.01 4.365l-14.774 83.621a14.61 14.61 0 01-13.873 11.8z" fill="#fff"/><path opacity=".5" d="M278.284 421.479a6.143 6.143 0 00-5.211-6.207 21.399 21.399 0 00-4.393-.45 14.998 14.998 0 00-7.066 1.514 11.164 11.164 0 00-5.279 8.567c-.327 2.264-.355 5.456 1.364 7.734 1.446 1.828 4.652 2.728 7.244 2.851l-.369 2.033a1.011 1.011 0 001.023 1.241h.287c.273-.029.533-.133.75-.3 1.173-.873 2.728-2.019 4.229-3.233l.668-.532a27.12 27.12 0 003.37-3.001 15.292 15.292 0 003.383-10.217z" fill="#87DDE8"/><path d="M148.76 352.782s-28.755 61.59-18.115 84.398c13.887 29.683 114.136-8.185 114.136-8.185" stroke="#CB9685" stroke-width="32.084" stroke-linecap="round" stroke-linejoin="round"/><path d="M161.583 336.044c-15.196 10.49-42.601 77.946-31.961 100.727l31.961-100.727z" fill="#F3F6FA"/><path d="M161.583 336.044c-15.196 10.49-42.601 77.946-31.961 100.727" stroke="#F3F6FA" stroke-width="35.89" stroke-linecap="round" stroke-linejoin="round"/><path d="M144.914 425.531l.286.109 3.383 4.27 1.187 7.652-6.521 10.859-20.407 5.62-6.725-4.352-4.202-2.851-1.104-3.874.954-2.769 2.688-6.398 14.869-5.47h6.247l9.345-2.796z" fill="#F3F6FA"/><path d="M154.517 432.665c-1.364-3.492-5.047-5.852-9.262-7.012.723 2.469 1.95 4.898 2.728 7.339 0 .109.068.219.095.328a9.403 9.403 0 01-2.973 9.794 36.514 36.514 0 01-10.04 5.866 44.527 44.527 0 01-9.863 2.728 11.209 11.209 0 01-12.277-7.489v-.082a267.256 267.256 0 01-1.542-4.993c-2.373 3.725-3.055 7.667-1.677 11.173 3.11 7.884 15.373 10.162 27.937 5.224 12.563-4.938 19.971-15.005 16.874-22.876z" fill="#D2DFE6"/></g><defs><filter id="filter0_d" x="327.537" y="335.306" width="396.049" height="118.058" filterUnits="userSpaceOnUse" color-interpolation-filters="sRGB"><feFlood flood-opacity="0" result="BackgroundImageFix"/><feColorMatrix in="SourceAlpha" values="0 0 0 0 0 0 0 0 0 0 0 0 0 0 0 0 0 0 127 0"/><feOffset dy="2.577"/><feGaussianBlur stdDeviation="7.732"/><feColorMatrix values="0 0 0 0 0.374547 0 0 0 0 0.481553 0 0 0 0 0.601935 0 0 0 0.15 0"/><feBlend in2="BackgroundImageFix" result="effect1_dropShadow"/><feBlend in="SourceGraphic" in2="effect1_dropShadow" result="shape"/></filter><filter id="filter1_d" x="658.262" y="551.079" width="89.545" height="49.708" filterUnits="userSpaceOnUse" color-interpolation-filters="sRGB"><feFlood flood-opacity="0" result="BackgroundImageFix"/><feColorMatrix in="SourceAlpha" values="0 0 0 0 0 0 0 0 0 0 0 0 0 0 0 0 0 0 127 0"/><feOffset dy=".991"/><feGaussianBlur stdDeviation="2.972"/><feColorMatrix values="0 0 0 0 0.374547 0 0 0 0 0.481553 0 0 0 0 0.601935 0 0 0 0.15 0"/><feBlend in2="BackgroundImageFix" result="effect1_dropShadow"/><feBlend in="SourceGraphic" in2="effect1_dropShadow" result="shape"/></filter><filter id="filter2_d" x="590.703" y="462.137" width="316.465" height="91.199" filterUnits="userSpaceOnUse" color-interpolation-filters="sRGB"><feFlood flood-opacity="0" result="BackgroundImageFix"/><feColorMatrix in="SourceAlpha" values="0 0 0 0 0 0 0 0 0 0 0 0 0 0 0 0 0 0 127 0"/><feOffset dy="1.716"/><feGaussianBlur stdDeviation="5.148"/><feColorMatrix values="0 0 0 0 0.374547 0 0 0 0 0.481553 0 0 0 0 0.601935 0 0 0 0.15 0"/><feBlend in2="BackgroundImageFix" result="effect1_dropShadow"/><feBlend in="SourceGraphic" in2="effect1_dropShadow" result="shape"/></filter><filter id="filter3_d" x="181.446" y="364.445" width="34.498" height="64.553" filterUnits="userSpaceOnUse" color-interpolation-filters="sRGB"><feFlood flood-opacity="0" result="BackgroundImageFix"/><feColorMatrix in="SourceAlpha" values="0 0 0 0 0 0 0 0 0 0 0 0 0 0 0 0 0 0 127 0"/><feOffset dy="4"/><feColorMatrix values="0 0 0 0 0.313726 0 0 0 0 0.372549 0 0 0 0 0.47451 0 0 0 0.08 0"/><feBlend in2="BackgroundImageFix" result="effect1_dropShadow"/><feBlend in="SourceGraphic" in2="effect1_dropShadow" result="shape"/></filter><filter id="filter4_d" x="178.055" y="313.195" width="37.22" height="94.809" filterUnits="userSpaceOnUse" color-interpolation-filters="sRGB"><feFlood flood-opacity="0" result="BackgroundImageFix"/><feColorMatrix in="SourceAlpha" values="0 0 0 0 0 0 0 0 0 0 0 0 0 0 0 0 0 0 127 0"/><feOffset dy="4"/><feColorMatrix values="0 0 0 0 0.313726 0 0 0 0 0.372549 0 0 0 0 0.47451 0 0 0 0.08 0"/><feBlend in2="BackgroundImageFix" result="effect1_dropShadow"/><feBlend in="SourceGraphic" in2="effect1_dropShadow" result="shape"/></filter><filter id="filter5_d" x="244.355" y="363.518" width="42.498" height="68.635" filterUnits="userSpaceOnUse" color-interpolation-filters="sRGB"><feFlood flood-opacity="0" result="BackgroundImageFix"/><feColorMatrix in="SourceAlpha" values="0 0 0 0 0 0 0 0 0 0 0 0 0 0 0 0 0 0 127 0"/><feOffset dy="4"/><feGaussianBlur stdDeviation="2"/><feColorMatrix values="0 0 0 0 0.313726 0 0 0 0 0.372549 0 0 0 0 0.47451 0 0 0 0.12 0"/><feBlend in2="BackgroundImageFix" result="effect1_dropShadow"/><feBlend in="SourceGraphic" in2="effect1_dropShadow" result="shape"/></filter><filter id="filter6_d" x="248.941" y="312.336" width="37.216" height="94.809" filterUnits="userSpaceOnUse" color-interpolation-filters="sRGB"><feFlood flood-opacity="0" result="BackgroundImageFix"/><feColorMatrix in="SourceAlpha" values="0 0 0 0 0 0 0 0 0 0 0 0 0 0 0 0 0 0 127 0"/><feOffset dy="4"/><feColorMatrix values="0 0 0 0 0.313726 0 0 0 0 0.372549 0 0 0 0 0.47451 0 0 0 0.08 0"/><feBlend in2="BackgroundImageFix" result="effect1_dropShadow"/><feBlend in="SourceGraphic" in2="effect1_dropShadow" result="shape"/></filter><clipPath id="clip0"><path fill="#fff" d="M0 0h1080v1080H0z"/></clipPath></defs></svg>